<svg xmlns="http://www.w3.org/2000/svg" viewBox="0 0 360 220" role="img"><title>Line directions on grids</title><desc>Three grid panels show lines, rays, and labeled points.</desc><g fill="none" stroke-linecap="round" stroke-linejoin="round"><rect x="10" y="35" width="105" height="150" fill="none" stroke="currentColor" stroke-width="2"/><line x1="25" y1="35" x2="25" y2="185" stroke="currentColor" stroke-width="0.7"/><line x1="40" y1="35" x2="40" y2="185" stroke="currentColor" stroke-width="0.7"/><line x1="55" y1="35" x2="55" y2="185" stroke="currentColor" stroke-width="0.7"/><line x1="70" y1="35" x2="70" y2="185" stroke="currentColor" stroke-width="0.7"/><line x1="85" y1="35" x2="85" y2="185" stroke="currentColor" stroke-width="0.7"/><line x1="100" y1="35" x2="100" y2="185" stroke="currentColor" stroke-width="0.7"/><line x1="10" y1="50" x2="115" y2="50" stroke="currentColor" stroke-width="0.7"/><line x1="10" y1="65" x2="115" y2="65" stroke="currentColor" stroke-width="0.7"/><line x1="10" y1="80" x2="115" y2="80" stroke="currentColor" stroke-width="0.7"/><line x1="10" y1="95" x2="115" y2="95" stroke="currentColor" stroke-width="0.7"/><line x1="10" y1="110" x2="115" y2="110" stroke="currentColor" stroke-width="0.7"/><line x1="10" y1="125" x2="115" y2="125" stroke="currentColor" stroke-width="0.7"/><line x1="10" y1="140" x2="115" y2="140" stroke="currentColor" stroke-width="0.7"/><line x1="10" y1="155" x2="115" y2="155" stroke="currentColor" stroke-width="0.7"/><line x1="10" y1="170" x2="115" y2="170" stroke="currentColor" stroke-width="0.7"/><rect x="128" y="35" width="105" height="150" fill="none" stroke="currentColor" stroke-width="2"/><line x1="143" y1="35" x2="143" y2="185" stroke="currentColor" stroke-width="0.7"/><line x1="158" y1="35" x2="158" y2="185" stroke="currentColor" stroke-width="0.7"/><line x1="173" y1="35" x2="173" y2="185" stroke="currentColor" stroke-width="0.7"/><line x1="188" y1="35" x2="188" y2="185" stroke="currentColor" stroke-width="0.7"/><line x1="203" y1="35" x2="203" y2="185" stroke="currentColor" stroke-width="0.7"/><line x1="218" y1="35" x2="218" y2="185" stroke="currentColor" stroke-width="0.7"/><line x1="128" y1="50" x2="233" y2="50" stroke="currentColor" stroke-width="0.7"/><line x1="128" y1="65" x2="233" y2="65" stroke="currentColor" stroke-width="0.7"/><line x1="128" y1="80" x2="233" y2="80" stroke="currentColor" stroke-width="0.7"/><line x1="128" y1="95" x2="233" y2="95" stroke="currentColor" stroke-width="0.7"/><line x1="128" y1="110" x2="233" y2="110" stroke="currentColor" stroke-width="0.7"/><line x1="128" y1="125" x2="233" y2="125" stroke="currentColor" stroke-width="0.7"/><line x1="128" y1="140" x2="233" y2="140" stroke="currentColor" stroke-width="0.7"/><line x1="128" y1="155" x2="233" y2="155" stroke="currentColor" stroke-width="0.7"/><line x1="128" y1="170" x2="233" y2="170" stroke="currentColor" stroke-width="0.7"/><rect x="246" y="35" width="105" height="150" fill="none" stroke="currentColor" stroke-width="2"/><line x1="261" y1="35" x2="261" y2="185" stroke="currentColor" stroke-width="0.7"/><line x1="276" y1="35" x2="276" y2="185" stroke="currentColor" stroke-width="0.7"/><line x1="291" y1="35" x2="291" y2="185" stroke="currentColor" stroke-width="0.7"/><line x1="306" y1="35" x2="306" y2="185" stroke="currentColor" stroke-width="0.7"/><line x1="321" y1="35" x2="321" y2="185" stroke="currentColor" stroke-width="0.7"/><line x1="336" y1="35" x2="336" y2="185" stroke="currentColor" stroke-width="0.7"/><line x1="246" y1="50" x2="351" y2="50" stroke="currentColor" stroke-width="0.7"/><line x1="246" y1="65" x2="351" y2="65" stroke="currentColor" stroke-width="0.7"/><line x1="246" y1="80" x2="351" y2="80" stroke="currentColor" stroke-width="0.7"/><line x1="246" y1="95" x2="351" y2="95" stroke="currentColor" stroke-width="0.7"/><line x1="246" y1="110" x2="351" y2="110" stroke="currentColor" stroke-width="0.7"/><line x1="246" y1="125" x2="351" y2="125" stroke="currentColor" stroke-width="0.7"/><line x1="246" y1="140" x2="351" y2="140" stroke="currentColor" stroke-width="0.7"/><line x1="246" y1="155" x2="351" y2="155" stroke="currentColor" stroke-width="0.7"/><line x1="246" y1="170" x2="351" y2="170" stroke="currentColor" stroke-width="0.7"/><line x1="20" y1="145" x2="95" y2="105" stroke="currentColor" stroke-width="3"/><circle cx="35" cy="145" r="3" fill="currentColor" stroke="currentColor" stroke-width="2"/><circle cx="80" cy="110" r="3" fill="currentColor" stroke="currentColor" stroke-width="2"/><text x="30" y="165" font-family="Arial, sans-serif" font-size="11" text-anchor="middle" fill="currentColor">P</text><text x="80" y="100" font-family="Arial, sans-serif" font-size="11" text-anchor="middle" fill="currentColor">M</text><line x1="170" y1="60" x2="190" y2="165" stroke="currentColor" stroke-width="3"/><circle cx="175" cy="75" r="3" fill="currentColor" stroke="currentColor" stroke-width="2"/><circle cx="188" cy="145" r="3" fill="currentColor" stroke="currentColor" stroke-width="2"/><text x="164" y="70" font-family="Arial, sans-serif" font-size="11" text-anchor="middle" fill="currentColor">M</text><text x="202" y="150" font-family="Arial, sans-serif" font-size="11" text-anchor="middle" fill="currentColor">P</text><line x1="260" y1="85" x2="335" y2="145" stroke="currentColor" stroke-width="3"/><circle cx="280" cy="85" r="3" fill="currentColor" stroke="currentColor" stroke-width="2"/><circle cx="325" cy="140" r="3" fill="currentColor" stroke="currentColor" stroke-width="2"/><text x="278" y="75" font-family="Arial, sans-serif" font-size="11" text-anchor="middle" fill="currentColor">M</text><text x="337" y="145" font-family="Arial, sans-serif" font-size="11" text-anchor="middle" fill="currentColor">P</text></g></svg>
