<svg xmlns="http://www.w3.org/2000/svg" viewBox="0 0 360 230" role="img"><title>Triangle classification worksheet</title><desc>A table and sample triangles for classification.</desc><g fill="none" stroke-linecap="round" stroke-linejoin="round"><rect x="20" y="20" width="320" height="65" fill="none" stroke="currentColor" stroke-width="2"/><line x1="20" y1="52" x2="340" y2="52" stroke="currentColor" stroke-width="2"/><line x1="100" y1="20" x2="100" y2="85" stroke="currentColor" stroke-width="2"/><line x1="180" y1="20" x2="180" y2="85" stroke="currentColor" stroke-width="2"/><line x1="260" y1="20" x2="260" y2="85" stroke="currentColor" stroke-width="2"/><text x="60" y="42" font-family="Arial, sans-serif" font-size="11" text-anchor="middle" fill="currentColor">Type</text><text x="140" y="42" font-family="Arial, sans-serif" font-size="11" text-anchor="middle" fill="currentColor">Acute</text><text x="220" y="42" font-family="Arial, sans-serif" font-size="11" text-anchor="middle" fill="currentColor">Right</text><text x="300" y="42" font-family="Arial, sans-serif" font-size="11" text-anchor="middle" fill="currentColor">Obtuse</text><text x="60" y="74" font-family="Arial, sans-serif" font-size="11" text-anchor="middle" fill="currentColor">Count</text><polygon points="25,135 75,105 90,145" fill="none" stroke="currentColor" stroke-width="2"/><polygon points="115,150 145,100 170,150" fill="none" stroke="currentColor" stroke-width="2"/><polygon points="195,150 195,100 245,150" fill="none" stroke="currentColor" stroke-width="2"/><polygon points="265,150 320,105 340,150" fill="none" stroke="currentColor" stroke-width="2"/><polygon points="45,205 105,165 150,205" fill="none" stroke="currentColor" stroke-width="2"/><polygon points="180,205 210,155 240,205" fill="none" stroke="currentColor" stroke-width="2"/><polygon points="265,205 325,165 340,205" fill="none" stroke="currentColor" stroke-width="2"/></g></svg>
