<svg xmlns="http://www.w3.org/2000/svg" viewBox="0 0 361 222" width="361" height="222" color="#000" role="img">
  <path fill="currentColor" fill-rule="evenodd" d="M163.75 209.26C159.50 208.83 159.42 208.63 161.56 203.52C162.97 200.13 162.97 199.62 161.55 198.05C160.11 196.47 160.25 195.80 163.16 190.16C166.34 183.99 168.17 182.69 169.74 185.49C170.20 186.32 171.95 187.15 173.64 187.35C175.33 187.54 177.23 188.02 177.86 188.41C178.57 188.85 179.00 188.35 179.00 187.06C179.00 185.51 179.64 185.00 181.57 185.00C184.06 185.00 184.14 185.19 183.89 190.51C183.68 194.96 184.00 196.29 185.57 197.49C187.46 198.94 187.45 198.98 185.31 199.58C183.33 200.14 183.17 200.67 183.70 205.10C184.26 209.88 184.21 210.00 181.64 210.00C179.49 210.00 179.00 209.54 179.00 207.50C179.00 206.12 179.45 205.00 180.00 205.00C180.55 205.00 181.00 204.55 181.00 204.00C181.00 203.45 179.88 203.00 178.50 203.00C177.12 203.00 175.95 202.44 175.88 201.75C175.82 201.06 175.48 201.81 175.13 203.42C174.33 207.14 172.27 207.85 171.06 204.83C170.21 202.71 170.11 202.68 169.95 204.50C169.85 205.60 169.71 207.14 169.63 207.91C169.47 209.59 168.70 209.77 163.75 209.26ZM198.57 208.33C196.31 207.11 195.22 207.00 193.83 207.87C192.84 208.49 191.57 209.00 191.01 209.00C189.24 209.00 189.92 206.06 192.00 204.77C194.83 203.00 194.76 197.38 191.90 196.47C189.23 195.62 190.60 194.23 194.50 193.82C197.50 193.50 197.50 193.50 197.16 198.25C196.76 203.79 197.87 204.33 200.20 199.75C203.68 192.94 203.54 192.31 198.48 191.55C194.80 191.00 193.71 190.36 192.92 188.29C192.38 186.88 192.18 185.49 192.47 185.20C193.32 184.35 198.17 186.92 197.56 187.90C196.84 189.07 199.59 190.09 201.50 189.36C202.32 189.05 203.00 187.71 203.00 186.39C203.00 184.67 203.56 184.00 205.00 184.00C206.45 184.00 207.00 184.67 207.00 186.44C207.00 188.45 207.56 188.93 210.25 189.19C213.84 189.53 213.78 189.19 212.16 199.53C211.35 204.70 211.44 205.30 213.13 205.74C216.28 206.57 215.24 207.49 209.72 208.77C203.08 210.32 202.17 210.28 198.57 208.33ZM167.00 203.88C167.00 203.33 166.55 203.16 166.00 203.50C165.45 203.84 165.00 204.57 165.00 205.12C165.00 205.67 165.45 205.84 166.00 205.50C166.55 205.16 167.00 204.43 167.00 203.88ZM205.79 204.94C203.72 203.73 204.42 201.38 207.07 200.69C208.58 200.30 209.00 199.30 209.00 196.09C209.00 191.02 206.50 190.42 205.45 195.25C205.06 197.04 203.42 200.19 201.79 202.25L198.83 206.00L203.17 205.97C206.53 205.95 207.12 205.72 205.79 204.94ZM177.44 199.60C181.44 198.87 181.88 198.00 178.25 198.00C174.36 198.00 171.84 198.94 172.57 200.12C172.88 200.62 173.48 200.82 173.89 200.57C174.30 200.31 175.90 199.88 177.44 199.60ZM165.50 196.00C165.84 195.45 165.39 195.00 164.50 195.00C163.61 195.00 163.16 195.45 163.50 196.00C163.84 196.55 164.29 197.00 164.50 197.00C164.71 197.00 165.16 196.55 165.50 196.00ZM171.50 195.00C171.84 194.45 171.67 194.00 171.12 194.00C170.57 194.00 169.84 194.45 169.50 195.00C169.16 195.55 169.33 196.00 169.88 196.00C170.43 196.00 171.16 195.55 171.50 195.00ZM179.32 192.66C178.51 192.20 177.59 192.08 177.27 192.40C176.95 192.72 176.08 192.48 175.34 191.87C174.60 191.26 174.00 191.08 174.00 191.47C174.00 191.86 174.99 192.98 176.19 193.95C177.81 195.27 178.69 195.44 179.59 194.61C180.52 193.75 180.46 193.31 179.32 192.66ZM169.00 190.88C169.00 189.10 168.75 188.96 167.50 190.00C166.68 190.68 166.00 191.64 166.00 192.12C166.00 192.61 166.68 193.00 167.50 193.00C168.36 193.00 169.00 192.10 169.00 190.88ZM333.86 190.98C330.85 189.22 330.78 185.31 333.66 177.96C335.15 174.13 336.74 171.00 337.19 171.00C337.63 171.00 338.00 170.37 338.00 169.61C338.00 168.08 340.10 167.00 343.08 167.00C345.79 167.00 349.00 170.54 349.00 173.53C349.00 177.06 346.18 177.89 344.01 175.01C343.04 173.72 341.77 173.02 341.13 173.42C338.09 175.30 334.98 186.00 337.47 186.00C338.24 186.00 339.16 185.55 339.50 185.00C340.33 183.66 343.33 183.73 344.72 185.12C346.57 186.97 344.20 190.71 340.76 191.40C336.81 192.19 335.82 192.13 333.86 190.98ZM29.09 190.06C28.33 189.59 27.66 187.92 27.60 186.35C27.54 184.73 26.96 183.54 26.25 183.60C25.56 183.66 23.61 183.77 21.91 183.85C19.47 183.97 18.59 184.62 17.69 187.00C16.89 189.13 15.90 190.00 14.28 190.00C13.03 190.00 12.00 189.44 12.00 188.75C12.00 188.07 14.81 182.02 18.25 175.31C22.36 167.28 25.17 162.93 26.46 162.59C27.53 162.31 28.55 162.21 28.71 162.38C28.88 162.55 29.49 166.02 30.08 170.09C32.64 187.91 32.43 192.12 29.09 190.06ZM26.41 176.25C25.54 171.45 25.58 171.47 23.56 174.55C21.52 177.66 22.14 180.00 25.01 180.00C26.87 180.00 27.02 179.60 26.41 176.25ZM158.67 176.37C158.58 176.30 131.95 175.98 99.50 175.66C67.05 175.34 40.39 175.06 40.25 175.04C40.11 175.02 40.00 174.33 40.00 173.51C40.00 172.69 42.59 170.33 45.75 168.26C48.91 166.19 51.65 164.16 51.83 163.75C52.02 163.34 52.58 163.00 53.08 163.00C54.18 163.00 63.50 156.45 67.00 153.22C68.38 151.95 71.91 149.47 74.86 147.71C77.81 145.94 81.63 143.66 83.36 142.62C85.09 141.59 87.85 140.00 89.50 139.08C92.22 137.57 99.51 132.79 106.00 128.26C107.38 127.30 109.09 125.95 109.82 125.26C110.55 124.57 111.63 124.00 112.23 124.00C112.82 124.00 114.79 122.88 116.59 121.50C118.39 120.13 120.15 119.00 120.50 119.00C120.85 119.00 123.02 117.72 125.32 116.15C127.62 114.58 131.25 112.47 133.39 111.47C135.53 110.46 137.49 108.83 137.75 107.85C138.01 106.87 139.03 105.81 140.02 105.50C141.01 105.18 142.07 104.27 142.38 103.46C142.68 102.66 143.82 102.00 144.91 102.00C146.95 102.00 163.94 90.96 169.90 85.77C171.77 84.14 175.23 81.98 177.59 80.96C183.56 78.40 200.85 66.96 207.50 61.17C210.65 58.42 229.73 46.00 230.80 46.00C231.32 46.00 232.32 45.33 233.00 44.50C233.68 43.67 235.51 43.00 237.05 43.00C240.27 43.00 241.79 44.68 248.75 55.95C250.26 58.39 254.31 64.61 257.75 69.76C261.19 74.91 264.00 79.49 264.00 79.94C264.00 80.39 264.74 81.37 265.64 82.11C266.54 82.86 268.38 85.28 269.74 87.49C271.10 89.69 272.77 91.95 273.44 92.50C274.80 93.61 285.00 107.72 285.00 108.49C285.00 108.76 286.84 111.57 289.08 114.74C291.32 117.91 295.63 124.10 298.65 128.50C301.67 132.90 305.90 138.97 308.04 142.00C310.18 145.03 313.18 149.91 314.72 152.86C316.25 155.81 318.61 159.41 319.98 160.86C324.20 165.36 330.00 173.38 330.00 174.72C330.00 175.43 329.44 176.03 328.75 176.07C326.42 176.21 158.83 176.50 158.67 176.37ZM317.00 168.98C317.00 168.50 316.54 167.84 315.99 167.49C315.43 167.15 313.52 164.51 311.74 161.63C309.96 158.74 307.93 155.51 307.24 154.44C306.55 153.37 305.68 151.82 305.31 151.00C304.94 150.18 303.14 147.31 301.32 144.64C299.49 141.96 298.00 139.20 298.00 138.50C298.00 137.81 297.11 137.00 296.02 136.72C294.94 136.43 293.48 134.92 292.79 133.35C292.10 131.78 291.28 130.28 290.97 130.00C290.66 129.72 289.12 127.27 287.54 124.55C285.97 121.83 283.27 117.75 281.54 115.48C279.81 113.21 277.80 109.93 277.07 108.18C276.35 106.43 275.24 105.00 274.61 105.00C273.97 105.00 272.66 103.54 271.69 101.75C268.38 95.67 266.31 93.51 264.84 94.64C263.03 96.03 253.61 99.46 247.74 100.86C238.82 102.99 226.64 101.67 215.73 97.39C209.07 94.78 196.33 85.63 195.44 82.81C195.12 81.81 194.28 81.00 193.56 81.00C192.06 81.00 177.66 89.11 177.17 90.24C176.98 90.66 176.43 91.00 175.94 91.00C174.97 91.00 150.82 106.93 149.99 108.12C149.70 108.52 144.75 111.80 138.99 115.40C133.22 119.00 127.83 122.41 127.00 122.98C126.17 123.55 120.33 127.36 114.00 131.45C107.67 135.54 101.38 139.75 100.00 140.80C98.62 141.85 95.95 143.51 94.05 144.49C92.15 145.46 89.98 146.88 89.23 147.63C88.47 148.38 87.18 149.00 86.36 149.00C84.82 149.00 79.38 152.75 75.00 156.83C73.62 158.11 69.01 161.21 64.75 163.72C60.49 166.22 57.00 168.63 57.00 169.06C57.00 169.50 115.50 169.85 187.00 169.84C258.61 169.84 317.00 169.45 317.00 168.98ZM309.85 136.75C307.05 134.48 304.02 129.27 303.22 125.35C302.70 122.81 301.68 121.16 300.21 120.51C297.23 119.18 298.01 117.42 301.39 117.83C304.81 118.24 309.15 115.54 308.36 113.50C308.04 112.67 308.28 112.00 308.89 112.00C309.50 112.00 310.00 112.45 310.00 113.00C310.00 113.55 310.68 114.00 311.50 114.00C313.65 114.00 313.36 116.75 311.13 117.46C310.10 117.78 308.46 118.94 307.48 120.03C305.73 121.96 305.77 122.00 309.60 121.97C311.74 121.95 314.32 121.32 315.32 120.56C317.01 119.27 317.03 118.96 315.57 116.14C313.56 112.25 313.62 111.06 315.96 108.01C317.75 105.67 317.92 105.64 318.60 107.40C319.00 108.44 318.85 110.55 318.27 112.09C317.40 114.39 317.54 115.17 319.02 116.52C320.70 118.04 321.03 118.03 323.50 116.41C325.77 114.92 326.31 114.87 327.08 116.08C327.71 117.07 327.35 118.03 325.89 119.25C323.83 120.96 323.88 124.00 325.97 124.00C326.54 124.00 326.98 124.79 326.95 125.75C326.90 127.55 316.88 133.00 313.64 133.00C311.82 133.00 311.44 134.53 313.02 135.51C314.08 136.17 313.43 138.00 312.13 138.00C311.72 138.00 310.69 137.44 309.85 136.75ZM311.65 128.13C312.88 129.14 313.97 128.93 317.58 126.96C322.80 124.11 323.39 122.40 318.75 123.58C316.96 124.04 313.18 124.43 310.35 124.45C305.52 124.50 305.26 124.63 306.23 126.50C306.80 127.60 307.77 129.14 308.38 129.92C309.30 131.08 309.56 130.94 309.83 129.11C310.10 127.25 310.40 127.09 311.65 128.13ZM98.00 126.00C98.00 125.45 98.58 125.00 99.30 125.00C102.79 125.00 102.78 122.73 99.28 118.14C97.33 115.59 95.27 112.49 94.71 111.25C93.60 108.83 92.49 108.40 91.50 110.00C90.48 111.65 89.00 111.13 89.00 109.12C89.00 107.98 90.17 106.76 92.00 106.00C95.02 104.75 95.40 104.08 95.03 100.61C94.86 99.00 95.29 98.81 97.97 99.34C100.52 99.85 101.56 99.50 103.42 97.49C105.94 94.78 107.49 94.37 108.58 96.14C108.98 96.77 108.23 98.09 106.89 99.11C105.26 100.37 104.98 100.96 106.01 100.98C106.83 100.99 108.52 103.14 109.76 105.75C112.65 111.87 115.07 114.93 115.70 113.25C116.36 111.49 120.00 111.68 120.00 113.47C120.00 114.29 118.73 115.61 117.17 116.41C115.62 117.21 111.29 119.92 107.54 122.44C100.86 126.92 98.00 127.98 98.00 126.00ZM108.50 119.00C108.84 118.45 108.44 118.00 107.62 118.00C106.79 118.00 105.84 118.45 105.50 119.00C105.16 119.55 105.56 120.00 106.38 120.00C107.21 120.00 108.16 119.55 108.50 119.00ZM107.06 115.11C108.77 114.07 109.77 112.97 109.27 112.67C108.78 112.37 107.06 113.20 105.44 114.52C101.91 117.41 102.76 117.72 107.06 115.11ZM104.54 112.38C108.07 110.07 107.59 108.54 104.00 110.66C102.35 111.63 101.00 112.78 101.00 113.22C101.00 114.37 101.79 114.19 104.54 112.38ZM293.25 113.28C292.56 113.04 292.00 111.43 292.00 109.73C292.00 106.79 292.08 106.73 293.43 108.56C294.54 110.06 295.14 110.23 296.07 109.32C296.73 108.67 296.99 107.43 296.66 106.57C295.99 104.81 293.45 104.47 292.50 106.00C292.16 106.55 290.96 107.00 289.83 107.00C288.38 107.00 287.96 106.54 288.39 105.42C288.73 104.55 289.00 103.65 289.00 103.42C289.00 103.19 289.68 103.00 290.50 103.00C292.30 103.00 292.54 99.04 290.75 98.90C290.06 98.85 288.60 98.71 287.50 98.59C286.40 98.47 284.49 98.29 283.25 98.18C279.63 97.89 280.66 96.00 284.44 96.00C286.34 96.00 289.54 95.02 291.57 93.83C294.97 91.82 295.11 91.56 293.45 90.34C292.46 89.61 291.84 88.86 292.07 88.67C292.31 88.48 295.80 88.53 299.83 88.78C306.98 89.22 307.14 89.29 306.55 91.64C306.14 93.29 306.43 94.23 307.48 94.63C308.31 94.95 309.00 96.12 309.00 97.22C309.00 98.74 308.51 99.11 307.00 98.71C304.65 98.09 304.20 100.48 306.50 101.36C308.42 102.10 308.46 105.00 306.56 105.00C305.76 105.00 304.52 105.79 303.80 106.75C302.65 108.29 298.39 111.59 295.50 113.18C294.95 113.48 293.94 113.53 293.25 113.28ZM124.03 108.00C123.99 103.48 120.14 95.20 119.26 97.75C118.11 101.10 117.00 98.28 117.00 92.00L117.00 85.00L119.94 85.00C121.56 85.00 123.16 84.55 123.50 84.00C124.54 82.31 128.00 82.85 128.00 84.70C128.00 86.02 128.27 86.13 129.20 85.20C130.93 83.47 135.00 83.69 135.00 85.50C135.00 86.33 135.45 87.00 136.00 87.00C136.55 87.00 137.00 87.44 137.00 87.97C137.00 88.50 138.40 90.93 140.12 93.37C143.50 98.17 143.30 100.00 139.37 100.00C137.36 100.00 136.98 99.62 137.47 98.08C138.19 95.83 136.97 94.78 135.03 95.98C133.89 96.69 133.94 97.26 135.33 99.38C136.25 100.78 137.00 102.40 137.00 102.96C137.00 104.92 133.90 104.00 131.39 101.29C129.31 99.05 128.72 98.83 127.95 100.04C127.45 100.84 127.02 103.10 127.02 105.06C127.01 107.02 126.34 109.49 125.53 110.56C124.17 112.36 124.06 112.17 124.03 108.00ZM102.59 108.50C104.08 107.12 104.89 106.01 104.40 106.02C103.22 106.04 101.81 107.10 100.13 109.25C98.13 111.80 99.48 111.39 102.59 108.50ZM97.36 107.50C97.71 106.59 97.36 106.00 96.47 106.00C95.66 106.00 95.00 106.67 95.00 107.50C95.00 108.33 95.40 109.00 95.89 109.00C96.38 109.00 97.05 108.33 97.36 107.50ZM300.00 104.06C300.00 102.88 298.05 101.62 297.33 102.33C296.62 103.05 297.88 105.00 299.06 105.00C299.58 105.00 300.00 104.58 300.00 104.06ZM104.00 103.00C104.00 102.45 103.33 102.00 102.50 102.00C101.67 102.00 101.00 102.45 101.00 103.00C101.00 103.55 101.67 104.00 102.50 104.00C103.33 104.00 104.00 103.55 104.00 103.00ZM302.60 100.27C301.59 99.25 300.75 100.78 301.58 102.13C302.21 103.15 302.45 103.15 302.79 102.14C303.02 101.44 302.94 100.60 302.60 100.27ZM296.00 98.00C296.00 97.45 295.30 97.00 294.44 97.00C293.58 97.00 293.16 97.45 293.50 98.00C293.84 98.55 294.54 99.00 295.06 99.00C295.58 99.00 296.00 98.55 296.00 98.00ZM128.00 97.00C128.00 96.45 127.33 96.00 126.50 96.00C125.67 96.00 125.00 96.45 125.00 97.00C125.00 97.55 125.67 98.00 126.50 98.00C127.33 98.00 128.00 97.55 128.00 97.00ZM256.18 94.80C260.48 93.05 264.00 91.20 264.00 90.70C264.00 90.19 261.81 87.02 259.13 83.64C256.46 80.26 253.95 76.49 253.57 75.25C252.64 72.26 251.00 72.38 251.00 75.43C251.00 80.07 245.71 82.76 243.00 79.50C241.51 77.71 241.35 73.25 242.73 71.87C243.27 71.33 245.01 70.72 246.60 70.52C248.20 70.31 249.63 70.11 249.80 70.07C250.23 69.97 244.21 61.23 240.10 56.00C238.16 53.52 236.43 51.31 236.27 51.07C236.10 50.83 233.94 52.07 231.46 53.82C228.97 55.57 226.48 57.00 225.93 57.00C225.37 57.00 223.79 58.12 222.41 59.50C221.04 60.87 218.47 62.73 216.71 63.64C214.94 64.54 213.28 65.56 213.00 65.90C211.85 67.31 201.01 75.00 200.17 75.00C199.66 75.00 198.65 75.71 197.93 76.58C196.80 77.95 197.37 78.91 202.06 83.54C205.05 86.50 207.88 88.94 208.35 88.96C208.81 88.98 210.39 89.84 211.85 90.86C214.47 92.70 225.18 96.50 230.00 97.31C231.38 97.54 236.07 97.79 240.43 97.86C247.24 97.98 249.47 97.55 256.18 94.80ZM300.00 96.62C300.00 96.41 299.32 95.68 298.50 95.00C297.27 93.98 297.00 94.05 297.00 95.38C297.00 96.27 297.68 97.00 298.50 97.00C299.32 97.00 300.00 96.83 300.00 96.62ZM125.00 93.50C125.00 92.67 124.58 92.00 124.06 92.00C122.80 92.00 121.89 93.56 122.69 94.36C123.82 95.49 125.00 95.05 125.00 93.50ZM302.98 93.48C302.28 92.64 301.51 92.16 301.26 92.41C300.56 93.10 301.97 95.00 303.18 95.00C303.84 95.00 303.77 94.43 302.98 93.48ZM134.50 93.00C134.84 92.45 134.19 92.00 133.06 92.00C131.93 92.00 131.00 92.45 131.00 93.00C131.00 93.55 131.65 94.00 132.44 94.00C133.23 94.00 134.16 93.55 134.50 93.00ZM146.00 92.70C146.00 91.98 146.46 90.94 147.03 90.37C148.40 89.00 144.26 83.68 142.38 84.41C140.68 85.06 140.56 82.84 142.20 81.20C143.82 79.58 147.00 79.68 147.00 81.35C147.00 82.08 147.96 83.55 149.14 84.60L151.28 86.50L150.76 81.70C150.47 79.06 149.96 76.63 149.63 76.29C149.29 75.96 147.29 76.37 145.17 77.20C141.82 78.52 140.95 78.53 138.62 77.31C134.77 75.29 136.38 73.68 141.49 74.45C146.01 75.12 147.73 73.76 145.92 70.91C143.27 66.72 146.51 64.13 149.26 68.25C150.70 70.40 150.84 70.43 152.71 68.75C153.78 67.79 154.88 67.00 155.16 67.00C156.06 67.00 162.00 76.74 162.00 78.22C162.00 80.42 163.16 81.11 164.70 79.83C165.65 79.05 166.41 79.01 167.11 79.71C169.09 81.69 163.79 86.08 156.46 88.54C152.32 89.93 149.37 91.51 149.18 92.44C148.79 94.32 146.00 94.55 146.00 92.70ZM274.58 87.47C272.43 85.01 269.96 81.93 269.08 80.62C268.21 79.32 266.65 77.06 265.61 75.59C263.32 72.36 264.23 70.99 267.00 73.50C268.80 75.13 269.32 75.17 271.76 73.94C273.27 73.18 275.77 71.53 277.33 70.28C278.88 69.02 281.02 68.00 282.08 68.00C284.33 68.00 284.42 67.64 282.79 65.03C281.14 62.39 282.80 60.99 284.60 63.50C287.83 67.99 288.92 68.83 290.81 68.34C293.38 67.67 294.38 69.41 292.84 71.88C291.87 73.44 291.89 74.16 292.93 75.42C293.65 76.29 294.86 77.00 295.62 77.00C296.38 77.00 297.00 77.90 297.00 79.00C297.00 81.19 295.05 81.65 293.28 79.88C292.46 79.06 291.81 79.07 290.83 79.92C290.10 80.55 287.42 82.36 284.87 83.94C280.90 86.40 280.31 87.17 280.74 89.40C281.49 93.37 279.08 92.61 274.58 87.47ZM122.50 90.00C122.84 89.45 122.67 89.00 122.12 89.00C121.57 89.00 120.84 89.45 120.50 90.00C120.16 90.55 120.33 91.00 120.88 91.00C121.43 91.00 122.16 90.55 122.50 90.00ZM131.00 88.97C131.00 88.47 130.33 88.32 129.51 88.64C128.68 88.95 128.26 89.62 128.57 90.12C129.22 91.17 131.00 90.33 131.00 88.97ZM211.38 87.39C210.59 84.22 211.57 83.25 214.03 84.79C216.64 86.41 218.00 86.32 218.00 84.50C218.00 83.67 217.36 83.00 216.57 83.00C214.36 83.00 212.00 80.12 212.00 77.42C212.00 72.63 216.28 66.99 219.90 67.02C225.18 67.05 225.65 68.16 223.56 75.70C222.52 79.44 221.47 83.97 221.23 85.76C220.77 89.07 219.60 89.76 214.25 89.84C212.68 89.86 211.82 89.13 211.38 87.39ZM226.85 89.33C225.95 89.09 224.99 88.06 224.72 87.03C224.22 85.11 225.98 76.89 227.09 76.00C227.43 75.72 228.25 73.85 228.91 71.83C230.64 66.52 232.19 65.53 235.86 67.43C237.52 68.29 239.15 69.43 239.48 69.97C239.82 70.51 239.39 74.32 238.55 78.44C237.70 82.55 237.00 86.13 237.00 86.39C237.00 86.65 236.29 87.56 235.43 88.43C233.94 89.92 230.46 90.29 226.85 89.33ZM157.76 84.71C158.75 83.95 158.64 83.45 157.26 82.40C156.19 81.59 155.99 81.05 156.75 81.03C158.44 80.99 158.32 78.95 156.40 75.10C154.87 72.04 152.07 71.26 152.90 74.12C153.12 74.88 153.51 78.08 153.77 81.24C154.24 86.94 154.54 87.20 157.76 84.71ZM234.54 80.50C236.48 73.85 236.17 71.37 233.46 71.83C230.39 72.36 229.87 73.35 229.28 79.88C228.76 85.62 228.85 86.00 230.83 86.00C232.53 86.00 233.26 84.92 234.54 80.50ZM277.00 83.55C277.00 82.83 272.33 78.00 271.64 78.00C270.41 78.00 271.02 79.64 273.04 81.81C274.87 83.78 277.00 84.72 277.00 83.55ZM220.42 74.68C220.93 72.67 221.05 70.71 220.68 70.35C219.57 69.24 216.00 73.16 216.00 75.49C216.00 80.45 219.11 79.88 220.42 74.68ZM277.77 77.81C277.55 77.16 276.84 76.45 276.19 76.23C275.46 75.99 275.23 76.44 275.61 77.42C276.30 79.23 278.37 79.61 277.77 77.81ZM281.54 76.07C281.18 75.48 280.40 75.00 279.82 75.00C279.16 75.00 279.23 75.57 280.02 76.52C281.39 78.18 282.62 77.81 281.54 76.07ZM248.00 75.00C248.00 74.45 247.32 74.00 246.50 74.00C245.68 74.00 245.00 74.45 245.00 75.00C245.00 75.55 245.68 76.00 246.50 76.00C247.32 76.00 248.00 75.55 248.00 75.00ZM290.00 75.56C290.00 75.32 289.55 74.84 289.00 74.50C288.45 74.16 288.00 74.36 288.00 74.94C288.00 75.52 288.45 76.00 289.00 76.00C289.55 76.00 290.00 75.80 290.00 75.56ZM241.50 40.10C236.21 39.31 236.01 37.45 239.96 25.72C243.61 14.89 244.54 13.47 248.51 12.63C252.18 11.86 253.14 12.50 255.31 17.16C256.99 20.78 256.74 24.00 254.76 24.00C254.14 24.00 253.95 25.62 254.29 28.14C254.73 31.43 254.35 33.07 252.41 36.14C251.07 38.26 249.57 40.00 249.07 40.00C248.57 40.00 247.56 40.16 246.83 40.35C246.10 40.55 243.70 40.44 241.50 40.10ZM248.37 33.75C249.35 30.08 249.10 29.00 247.25 29.02C244.52 29.04 242.97 30.43 242.44 33.33C242.01 35.72 242.26 36.00 244.86 36.00C247.03 36.00 247.92 35.43 248.37 33.75ZM251.00 22.45C251.00 20.17 248.76 19.61 247.35 21.54C246.35 22.91 246.30 23.57 247.16 24.10C248.73 25.07 251.00 24.09 251.00 22.45Z"/>
</svg>
