<svg xmlns="http://www.w3.org/2000/svg" viewBox="0 0 433 270" width="433" height="270" color="#000" role="img">
  <path fill="currentColor" fill-rule="evenodd" d="M28.78 256.86C26.81 255.63 29.16 252.60 32.55 252.00C35.02 251.56 35.61 250.74 37.18 245.50C39.42 238.02 39.42 237.04 37.25 235.38C35.72 234.21 35.69 233.91 37.00 233.03C37.83 232.48 40.55 232.02 43.05 232.02C53.93 231.98 56.34 237.41 50.88 249.68C48.07 255.97 44.74 257.88 36.73 257.76C33.06 257.70 29.48 257.29 28.78 256.86ZM395.25 256.34C393.38 255.58 393.69 253.87 397.05 246.38C398.74 242.62 399.88 238.66 399.60 237.53C399.31 236.40 400.09 233.69 401.32 231.49C403.12 228.27 404.19 227.44 406.85 227.18C413.09 226.58 417.65 232.56 413.55 235.96C412.42 236.89 412.23 238.64 412.69 243.61C413.24 249.43 413.07 250.30 410.97 252.53C409.70 253.89 407.63 255.00 406.38 255.00C405.14 255.00 403.84 255.45 403.50 256.00C402.87 257.02 397.49 257.24 395.25 256.34ZM46.32 249.79C47.54 248.15 48.51 244.94 48.78 241.65C49.18 236.79 49.01 236.14 47.12 235.54C44.49 234.70 43.00 235.57 43.00 237.94C43.00 238.94 42.38 241.27 41.61 243.13C40.85 244.98 39.91 248.00 39.52 249.83C38.84 253.01 38.93 253.14 41.56 252.83C43.11 252.64 45.17 251.33 46.32 249.79ZM406.79 248.57C407.50 247.90 408.17 246.04 408.29 244.43C408.47 241.96 408.10 241.45 405.92 241.20C403.70 240.94 403.19 241.44 402.17 244.82C400.48 250.45 400.64 251.24 403.25 250.46C404.49 250.09 406.08 249.24 406.79 248.57ZM17.67 236.33C17.30 235.97 17.00 234.38 17.00 232.81C17.00 230.44 17.51 229.85 19.98 229.35C21.62 229.03 23.46 228.15 24.09 227.40C24.98 226.32 24.62 225.81 22.38 224.95C18.03 223.30 16.76 220.69 19.75 219.54C21.01 219.05 22.38 219.91 24.64 222.60L27.78 226.33L31.35 224.64C33.31 223.71 35.15 222.57 35.44 222.10C36.13 220.98 25.30 210.73 21.16 208.58C17.65 206.77 17.16 203.79 20.27 203.19C22.05 202.84 24.04 204.66 33.79 215.50L39.08 221.38L43.23 219.87C45.51 219.04 47.53 217.90 47.72 217.34C48.07 216.29 32.88 200.91 28.70 198.09C27.41 197.21 25.29 195.49 23.99 194.25C22.69 193.01 21.08 192.00 20.42 192.00C19.76 192.00 18.94 191.29 18.61 190.42C17.68 187.99 17.89 185.00 18.98 185.00C19.53 185.00 27.02 191.97 35.64 200.50C44.26 209.03 51.61 216.00 51.96 216.00C53.52 216.00 57.98 213.41 57.98 212.50C57.98 211.42 47.84 201.08 41.75 195.95C39.69 194.21 38.00 192.33 38.00 191.76C38.00 190.01 25.75 178.05 21.25 175.41C18.68 173.90 17.00 172.18 17.00 171.06C17.00 168.14 19.85 167.75 22.31 170.33C23.51 171.61 28.74 177.11 33.91 182.57C53.34 203.07 61.35 211.00 62.61 211.00C64.93 211.00 69.00 208.71 69.00 207.41C69.00 206.71 67.54 205.12 65.75 203.87C63.96 202.62 62.14 201.02 61.70 200.30C61.26 199.59 60.27 199.00 59.50 199.00C58.73 199.00 57.71 198.30 57.23 197.44C54.81 193.13 26.08 163.00 24.38 163.00C23.68 163.00 22.74 162.44 22.30 161.75C21.86 161.06 20.60 160.00 19.50 159.40C18.40 158.79 17.36 157.11 17.18 155.65C16.64 151.13 20.19 152.42 25.73 158.75C28.50 161.91 36.66 170.57 43.86 178.00C51.06 185.43 56.97 191.64 56.98 191.80C57.03 192.48 62.82 197.92 67.85 202.01C72.30 205.62 73.49 206.16 74.85 205.18C75.76 204.53 77.62 203.50 79.00 202.90L81.50 201.80L78.59 199.65C75.33 197.25 52.54 175.43 47.64 170.03C43.56 165.52 27.15 149.29 23.11 145.75C21.38 144.24 19.33 143.00 18.55 143.00C17.78 143.00 16.39 142.24 15.46 141.32C13.88 139.74 13.89 139.55 15.58 138.32C18.78 135.98 21.41 136.79 24.76 141.15C27.99 145.35 58.96 177.15 69.05 186.62C72.05 189.44 75.74 193.04 77.25 194.62C83.13 200.76 83.32 200.85 87.35 199.24C89.36 198.44 91.00 197.44 91.00 197.03C91.00 195.40 81.78 184.65 76.54 180.18C65.87 171.07 49.18 154.35 36.75 140.32C32.76 135.82 29.08 132.11 28.56 132.07C27.52 131.99 17.69 123.97 17.17 122.77C16.98 122.35 16.18 122.00 15.39 122.00C14.60 122.00 13.51 120.84 12.97 119.42C11.98 116.82 12.39 115.00 13.96 115.00C14.85 115.00 38.62 138.49 53.26 153.82C58.07 158.87 62.38 163.00 62.82 163.00C63.26 163.00 65.63 165.14 68.08 167.75C70.53 170.36 75.45 175.20 79.02 178.51C82.58 181.81 87.48 186.88 89.91 189.76C92.33 192.64 95.03 194.99 95.91 194.97C97.89 194.93 101.00 192.64 101.00 191.22C101.00 189.95 77.44 166.12 63.75 153.54C58.39 148.62 54.00 144.16 54.00 143.64C54.00 141.95 20.56 110.07 18.75 110.04C17.79 110.02 17.00 109.55 17.00 109.00C17.00 108.45 16.32 108.00 15.50 108.00C14.50 108.00 14.00 107.00 14.00 105.00C14.00 102.93 14.49 102.00 15.59 102.00C16.46 102.00 27.02 112.01 39.04 124.25C51.07 136.49 61.59 147.18 62.42 148.00C63.25 148.82 72.93 158.44 83.93 169.37L103.93 189.24L107.71 188.53C112.11 187.70 113.00 187.25 113.00 185.87C113.00 184.65 110.48 182.00 109.32 182.00C108.87 182.00 101.02 174.35 91.89 165.00C82.75 155.65 74.78 148.00 74.16 148.00C73.55 148.00 72.39 146.72 71.58 145.16C70.77 143.59 68.68 141.23 66.94 139.91C60.38 134.93 56.38 131.37 52.50 127.04C48.72 122.82 45.85 119.78 34.83 108.35C28.51 101.79 24.17 98.00 22.98 98.00C22.44 98.00 22.00 97.40 22.00 96.67C22.00 94.85 17.74 91.00 15.72 91.00C13.75 91.00 11.62 87.43 12.39 85.42C13.49 82.56 16.84 84.14 22.36 90.11C25.46 93.46 28.00 96.44 28.00 96.72C28.00 97.17 36.07 105.65 56.11 126.22C59.74 129.95 63.11 133.00 63.59 133.00C64.46 133.00 69.63 137.80 77.06 145.50C96.58 165.72 108.76 178.00 109.31 178.00C109.68 178.00 111.44 179.59 113.24 181.53L116.50 185.07L120.75 183.38C123.09 182.45 125.00 181.31 125.00 180.83C125.00 180.35 121.76 176.94 117.79 173.23C113.83 169.53 105.95 161.89 100.29 156.25C94.63 150.61 89.55 146.00 89.00 146.00C88.45 146.00 88.00 145.49 88.00 144.86C88.00 142.97 79.23 133.30 75.31 130.88C73.30 129.64 70.10 126.91 68.21 124.81C66.32 122.72 64.20 121.00 63.50 121.00C62.80 121.00 61.46 119.83 60.52 118.40C59.59 116.96 56.72 113.66 54.16 111.06C51.60 108.46 45.23 101.66 40.00 95.96C25.78 80.44 19.62 74.49 15.78 72.58C12.95 71.17 12.80 68.60 15.53 68.21C17.01 68.00 21.13 71.71 31.03 82.17C48.89 101.06 68.48 120.60 74.27 125.30C76.85 127.39 82.00 132.33 85.73 136.29C89.45 140.25 100.77 151.69 110.87 161.71L129.24 179.93L132.12 178.44C133.70 177.62 135.00 176.60 135.00 176.17C135.00 175.06 110.45 150.00 109.37 150.00C108.88 150.00 107.59 148.76 106.52 147.25C104.87 144.93 93.08 132.91 89.90 130.31C89.36 129.86 83.31 123.76 76.46 116.75C69.62 109.74 63.61 104.00 63.12 104.00C62.63 104.00 61.16 102.56 59.86 100.80C57.54 97.65 52.61 92.27 37.61 76.51C33.42 72.12 30.00 68.18 30.00 67.76C30.00 67.34 29.46 67.00 28.80 67.00C28.14 67.00 25.68 64.98 23.35 62.50C21.01 60.03 18.29 57.99 17.30 57.98C13.78 57.95 12.87 56.49 13.19 51.40L13.50 46.50L17.95 46.60C20.40 46.66 22.57 47.22 22.78 47.85C22.99 48.48 23.80 49.00 24.58 49.00C25.36 49.00 26.00 49.39 26.00 49.86C26.00 50.34 28.14 51.52 30.75 52.50C33.36 53.47 35.93 54.65 36.45 55.13C36.97 55.61 38.10 56.00 38.95 56.01C39.80 56.01 41.79 56.69 43.38 57.51C46.28 59.03 59.84 64.47 70.00 68.21C73.03 69.32 76.92 70.85 78.65 71.61C80.38 72.38 82.12 73.00 82.50 73.00C82.89 73.00 86.99 74.80 91.62 77.00C96.25 79.20 100.61 81.00 101.32 81.00C102.02 81.00 103.03 81.38 103.55 81.84C104.07 82.30 106.08 83.26 108.00 83.98C115.30 86.68 134.14 96.14 136.06 98.06C137.17 99.17 138.44 99.85 138.88 99.57C139.83 98.99 149.14 102.39 152.34 104.48C153.54 105.28 156.45 106.60 158.79 107.43C161.13 108.25 166.98 110.79 171.77 113.06C176.57 115.34 181.62 117.66 183.00 118.22C185.88 119.40 187.90 120.41 197.34 125.40C201.10 127.38 204.56 128.77 205.02 128.49C205.82 128.00 207.54 128.64 217.79 133.28C222.40 135.36 224.53 135.00 231.50 130.94C238.78 126.70 250.64 121.00 252.19 121.00C253.12 121.00 254.14 120.58 254.45 120.08C254.77 119.57 256.32 118.87 257.91 118.52C259.49 118.17 261.58 117.01 262.55 115.94C263.52 114.87 264.87 114.00 265.56 114.00C266.25 114.00 269.59 112.42 273.00 110.50C276.41 108.58 279.71 106.99 280.35 106.97C281.68 106.93 289.33 103.22 293.00 100.82C294.38 99.93 297.38 98.89 299.67 98.52C301.97 98.15 304.05 97.31 304.30 96.66C304.55 96.00 307.40 94.40 310.63 93.10C315.94 90.96 329.41 84.37 342.42 77.57C345.13 76.16 348.16 75.00 349.17 75.00C350.18 75.00 351.00 74.55 351.00 74.00C351.00 73.45 351.66 73.00 352.46 73.00C353.26 73.00 357.85 70.97 362.66 68.50C367.47 66.03 371.76 64.00 372.19 64.00C372.62 64.00 377.14 62.02 382.23 59.61C387.33 57.19 393.30 54.66 395.50 53.98C397.70 53.30 400.79 51.45 402.37 49.87C403.95 48.29 405.75 47.00 406.39 47.00C407.02 47.00 409.22 45.85 411.29 44.45C413.35 43.05 415.48 42.18 416.02 42.51C417.23 43.26 417.33 56.00 416.12 56.00C415.64 56.00 414.63 55.07 413.87 53.93C412.70 52.17 412.09 52.02 409.75 52.91C408.24 53.48 407.00 54.43 407.00 55.02C407.00 56.27 411.29 60.28 415.25 62.73C416.76 63.67 418.00 65.23 418.00 66.22C418.00 69.65 414.50 67.97 408.96 61.87L403.40 55.75L400.17 58.70C397.12 61.48 397.04 61.73 398.72 63.18C399.70 64.03 401.23 65.12 402.12 65.61C403.53 66.38 412.48 73.93 416.60 77.82C417.37 78.55 418.00 80.01 418.00 81.07C418.00 83.99 414.35 83.47 412.28 80.25C411.31 78.74 407.58 74.71 404.01 71.30C393.62 61.40 394.50 61.94 390.79 63.18C384.35 65.32 383.37 63.84 403.95 83.00C410.15 88.78 415.85 93.65 416.61 93.82C418.23 94.20 419.47 98.32 418.63 100.52C417.80 102.68 414.43 100.46 412.89 96.74C412.25 95.19 410.99 93.38 410.10 92.71C409.21 92.04 407.25 90.00 405.74 88.17C404.23 86.34 403.00 85.08 403.00 85.37C403.00 85.66 398.67 81.64 393.37 76.45C388.07 71.25 383.56 67.00 383.34 67.00C383.12 67.00 381.30 67.68 379.29 68.52L375.65 70.04L378.69 73.27C385.00 79.97 392.64 87.63 396.50 91.13C398.70 93.12 401.21 95.60 402.09 96.63C404.69 99.70 413.80 108.00 414.57 108.00C415.59 108.00 417.93 111.27 417.97 112.75C418.06 116.46 412.81 112.09 396.26 94.70C395.84 94.26 393.70 92.20 391.50 90.13C384.32 83.36 375.00 73.16 375.00 72.07C375.00 71.48 374.35 71.00 373.57 71.00C371.06 71.00 367.00 72.91 367.00 74.08C367.00 75.67 387.81 98.20 396.38 105.89C408.50 116.76 412.76 120.43 415.43 122.30C416.84 123.28 418.00 124.75 418.00 125.55C418.00 127.57 416.63 127.36 414.50 125.00C413.50 123.90 412.07 123.00 411.32 123.00C410.56 123.00 405.68 118.84 400.47 113.75C395.26 108.66 390.29 103.83 389.42 103.00C388.55 102.17 384.84 98.25 381.17 94.28C377.50 90.31 371.87 84.37 368.66 81.07C362.33 74.58 363.06 74.74 357.17 78.61C356.98 78.73 357.66 79.67 358.67 80.69C359.67 81.70 363.84 86.13 367.93 90.52C386.50 110.47 391.83 116.00 392.48 116.00C392.87 116.00 395.28 118.16 397.84 120.80C400.40 123.44 405.20 127.60 408.50 130.04C415.76 135.41 418.00 137.76 418.00 140.01C418.00 141.30 417.38 141.60 415.50 141.24C414.13 140.98 413.00 140.26 412.99 139.63C412.99 138.31 403.57 129.00 402.24 129.00C400.94 129.00 389.50 117.49 361.71 88.21C357.42 83.69 353.37 80.02 352.71 80.04C352.04 80.05 350.40 80.68 349.06 81.42L346.62 82.77L349.56 85.72C351.18 87.34 354.01 90.42 355.86 92.58C363.94 101.99 391.36 130.00 392.49 130.00C393.18 130.00 395.61 132.03 397.89 134.50C400.17 136.97 402.44 139.00 402.93 139.00C403.42 139.00 404.99 140.46 406.42 142.25C407.85 144.04 409.35 145.80 409.76 146.16C416.29 152.00 419.00 154.98 419.00 156.34C419.00 158.78 417.17 158.37 414.08 155.25C412.59 153.74 408.30 149.57 404.56 146.00C400.82 142.43 396.63 138.04 395.26 136.25C393.89 134.46 392.25 133.00 391.63 132.99C391.01 132.99 382.85 125.01 373.50 115.27C364.15 105.53 353.76 94.73 350.42 91.28C344.17 84.83 341.87 83.90 338.44 86.43C336.57 87.81 336.64 88.01 340.45 91.93C342.63 94.17 344.99 96.00 345.70 96.00C346.42 96.00 347.00 96.50 347.00 97.11C347.00 98.10 369.37 120.69 386.34 136.83C390.00 140.32 393.00 143.31 393.00 143.50C393.00 144.15 403.80 154.59 408.02 158.00C419.55 167.34 420.49 168.49 417.49 169.64C416.50 170.02 413.40 167.61 408.45 162.61C404.30 158.42 400.26 155.00 399.46 155.00C398.66 155.00 398.00 154.58 398.00 154.06C398.00 153.55 395.25 150.29 391.89 146.81C388.53 143.34 383.70 138.14 381.15 135.25C378.60 132.36 376.03 130.00 375.43 130.00C374.84 130.00 368.14 123.59 360.55 115.75C352.97 107.91 345.90 101.17 344.86 100.77C343.81 100.37 342.65 99.26 342.28 98.30C341.20 95.47 335.23 90.00 333.22 90.00C332.21 90.00 330.54 90.61 329.51 91.37C327.70 92.69 327.71 92.82 329.87 95.62C331.10 97.20 335.56 101.57 339.80 105.33C348.50 113.05 363.83 127.90 374.40 138.86C387.35 152.28 403.89 168.42 410.92 174.50C417.86 180.50 419.19 182.61 416.65 183.58C415.33 184.09 376.00 146.30 376.00 144.53C376.00 143.64 369.61 137.29 348.71 117.42C341.72 110.77 336.00 105.58 336.00 105.88C336.00 106.17 333.98 104.43 331.50 102.00C329.03 99.57 327.00 97.03 327.00 96.35C327.00 93.09 320.80 93.63 318.97 97.05C318.02 98.84 318.97 100.11 327.20 108.05C332.31 112.99 338.30 118.83 340.50 121.02C342.70 123.22 344.86 125.01 345.30 125.01C346.16 125.00 360.90 138.75 364.97 143.36C371.42 150.67 404.37 183.00 405.37 183.00C405.99 183.01 408.69 185.72 411.37 189.03C414.05 192.35 417.09 195.51 418.12 196.06C420.43 197.30 420.60 200.00 418.37 200.00C416.73 200.00 413.44 196.83 407.08 189.15C405.19 186.87 403.49 185.18 403.28 185.38C402.70 185.97 357.00 140.45 357.00 139.29C357.00 138.71 354.41 136.15 351.25 133.60C341.89 126.03 333.07 118.06 323.67 108.66C315.24 100.23 314.66 99.84 311.41 100.45C307.81 101.13 307.18 102.29 309.25 104.44C323.05 118.81 335.68 131.28 336.58 131.41C337.21 131.50 339.21 132.91 341.02 134.54C347.68 140.53 351.00 143.71 351.00 144.11C351.00 144.82 402.73 196.74 403.82 197.13C405.43 197.69 419.00 211.09 419.00 212.11C419.00 214.50 415.61 212.29 408.12 205.00C403.60 200.60 399.25 197.00 398.45 197.00C397.65 197.00 397.00 196.62 397.00 196.16C397.00 195.69 385.53 183.72 371.50 169.55C357.48 155.38 346.00 143.38 346.00 142.89C346.00 142.40 345.66 142.00 345.25 142.00C344.84 141.99 342.94 140.53 341.04 138.75C339.13 136.96 337.33 135.49 337.04 135.48C335.59 135.44 322.17 122.48 313.29 112.57C305.66 104.04 304.88 103.61 300.56 105.67C297.34 107.21 295.83 109.00 297.75 109.00C299.03 109.00 335.00 144.55 335.00 145.81C335.00 146.46 335.64 147.00 336.43 147.00C338.45 147.00 378.31 186.36 381.65 191.65C383.16 194.04 384.72 196.00 385.11 196.00C386.30 196.00 391.05 200.14 397.45 206.76C400.78 210.21 404.03 213.02 404.68 213.01C405.33 213.01 406.76 214.26 407.85 215.79C409.22 217.72 411.41 218.98 414.92 219.88C420.44 221.30 421.32 222.01 420.41 224.37C419.34 227.16 416.43 227.08 410.48 224.07C407.26 222.45 404.31 221.31 403.93 221.54C403.56 221.77 398.36 219.91 392.37 217.41C386.39 214.90 379.93 212.26 378.00 211.54C376.07 210.81 372.25 209.09 369.50 207.70C366.75 206.32 359.55 202.87 353.50 200.03C347.45 197.19 341.72 194.45 340.76 193.93C339.81 193.42 337.70 193.00 336.08 193.00C334.47 193.00 332.43 192.29 331.56 191.42C330.69 190.55 326.04 188.26 321.24 186.33C316.43 184.40 312.07 182.42 311.55 181.91C311.03 181.41 310.05 181.00 309.37 181.00C308.69 181.00 305.30 179.69 301.82 178.08C298.34 176.47 292.35 173.98 288.50 172.53C284.65 171.09 280.09 169.07 278.37 168.06C276.65 167.04 273.84 165.90 272.12 165.53C270.40 165.15 265.43 163.08 261.08 160.92C256.73 158.76 252.76 157.00 252.26 157.00C249.67 157.00 230.43 148.51 229.46 146.94C229.14 146.42 227.78 146.00 226.44 146.00C224.98 146.00 224.00 145.42 224.00 144.56C224.00 142.05 221.92 141.71 219.88 143.89C218.81 145.05 217.26 146.00 216.46 146.00C215.66 146.00 215.00 146.36 215.00 146.81C215.00 147.56 200.00 155.35 192.00 158.74C190.07 159.56 187.31 160.85 185.85 161.62C184.39 162.38 182.53 163.00 181.72 163.00C180.91 163.00 179.68 163.68 179.00 164.50C178.32 165.32 176.62 166.00 175.24 166.00C173.85 166.00 172.21 166.70 171.58 167.57C170.46 169.09 165.32 171.46 152.00 176.60C148.43 177.98 144.38 179.75 143.00 180.52C136.33 184.30 126.15 189.00 124.66 189.00C123.75 189.00 122.98 189.56 122.96 190.25C122.91 191.60 112.46 197.08 110.00 197.05C108.79 197.03 108.76 197.19 109.85 197.89C110.79 198.48 110.11 198.94 107.56 199.42C105.56 199.80 101.87 200.98 99.38 202.05C96.88 203.12 94.07 204.00 93.14 204.00C92.21 204.00 90.67 204.90 89.73 206.00C88.79 207.10 87.13 208.00 86.04 208.00C84.95 208.00 82.36 208.98 80.28 210.17C74.54 213.46 69.22 216.00 68.05 216.00C67.47 216.00 67.00 216.45 67.00 217.00C67.00 217.55 65.68 218.00 64.06 218.00C62.44 218.00 60.87 218.40 60.57 218.88C60.28 219.36 57.66 220.51 54.77 221.42C51.87 222.33 48.60 223.48 47.50 223.98C46.40 224.47 41.68 226.49 37.00 228.47C32.33 230.45 26.83 233.17 24.77 234.53C21.01 237.02 18.89 237.56 17.67 236.33ZM409.47 234.38C411.61 232.25 410.91 230.50 407.92 230.50C406.02 230.50 405.43 231.10 405.18 233.25C404.82 236.43 406.88 236.97 409.47 234.38ZM400.00 213.14C400.00 212.67 395.84 208.52 390.75 203.93C379.32 193.62 378.00 192.30 378.00 191.22C378.00 189.86 343.14 155.97 336.75 151.12C333.59 148.72 331.00 146.36 331.00 145.89C331.00 144.28 299.82 114.00 298.16 114.00C297.52 114.00 297.00 113.34 297.00 112.54C297.00 108.91 288.87 108.30 287.51 111.83C287.06 113.00 288.71 115.19 293.19 119.37C314.28 139.06 317.91 142.60 317.97 143.50C318.03 144.36 326.25 152.32 341.43 166.22C349.83 173.91 367.00 190.78 367.00 191.34C367.00 191.87 369.98 194.76 380.11 204.08C382.10 205.91 387.05 208.84 391.11 210.60C399.38 214.18 400.00 214.36 400.00 213.14ZM372.00 200.05C372.00 199.52 370.85 198.28 369.44 197.30C368.04 196.31 365.81 194.38 364.50 193.00C355.45 183.51 343.61 171.88 339.56 168.50C336.92 166.30 330.43 160.06 325.13 154.63C310.09 139.22 301.99 131.21 291.99 121.83L282.74 113.16L279.23 114.83L275.72 116.50L286.61 126.61C292.60 132.17 299.19 138.47 301.25 140.61C303.31 142.75 311.75 151.38 320.00 159.79C328.25 168.20 335.00 175.51 335.00 176.04C335.00 176.57 335.65 177.00 336.44 177.00C337.23 177.00 339.35 178.35 341.16 180.00C342.97 181.65 344.69 183.00 344.98 183.00C345.28 183.00 347.48 185.46 349.88 188.46C353.57 193.09 355.31 194.32 361.36 196.64C365.29 198.14 368.93 199.73 369.45 200.18C370.73 201.28 372.00 201.22 372.00 200.05ZM344.00 187.41C344.00 186.45 337.63 180.00 336.68 180.00C335.89 180.00 321.29 165.47 303.83 147.30C300.24 143.56 291.95 135.42 285.41 129.22L273.53 117.94L270.26 119.70C268.47 120.66 267.00 121.71 267.00 122.02C267.00 122.65 275.62 130.00 276.36 130.00C276.62 130.00 279.68 133.04 283.17 136.75C291.00 145.09 294.52 148.60 314.22 167.70C328.79 181.82 334.99 186.74 336.79 185.63C337.20 185.38 338.64 185.80 340.01 186.55C342.72 188.05 344.00 188.33 344.00 187.41ZM303.48 161.29C293.87 152.11 286.00 144.27 286.00 143.88C286.00 142.78 273.36 130.90 270.75 129.55C269.48 128.89 267.24 127.15 265.77 125.68C263.66 123.57 262.64 123.20 260.81 123.87C256.90 125.32 257.64 127.51 263.70 132.46C266.89 135.06 271.30 139.20 273.50 141.67C275.70 144.13 282.99 151.65 289.70 158.38C298.78 167.49 303.26 171.21 307.20 172.95C310.12 174.23 313.85 175.89 315.50 176.62C317.15 177.35 319.05 177.96 319.73 177.98C320.40 177.99 313.09 170.48 303.48 161.29ZM142.50 172.75C144.41 171.51 145.98 170.25 145.99 169.94C145.99 169.63 144.65 168.08 143.00 166.50C141.35 164.92 140.00 163.89 140.00 164.20C140.00 164.96 122.68 147.22 115.88 139.50C112.97 136.20 109.45 132.93 108.05 132.24C106.65 131.55 98.30 123.45 89.50 114.24C80.70 105.03 68.55 92.52 62.50 86.43C56.45 80.34 49.64 73.37 47.36 70.93C39.28 62.28 32.84 58.00 27.88 58.00C26.85 58.00 26.00 57.55 26.00 57.00C26.00 56.45 25.32 56.00 24.50 56.00C23.68 56.00 23.00 55.60 23.00 55.12C23.00 54.63 22.10 54.00 21.00 53.71C19.90 53.42 19.00 53.30 19.00 53.44C19.00 53.67 28.15 63.42 31.08 66.31C45.25 80.30 61.09 96.90 61.54 98.25C61.87 99.21 62.56 100.00 63.09 100.00C64.70 100.00 94.64 129.37 122.00 157.79C131.07 167.21 138.62 174.94 138.76 174.96C138.91 174.98 140.59 173.99 142.50 172.75ZM154.32 167.25L157.72 165.50L145.61 153.30C138.95 146.60 132.60 140.17 131.50 139.02C128.57 135.96 110.55 119.03 110.21 119.01C109.81 119.00 91.49 99.79 85.86 93.50C83.39 90.75 79.95 86.92 78.20 85.00C76.44 83.08 75.01 81.14 75.00 80.69C75.00 80.25 74.62 80.11 74.17 80.40C73.71 80.68 71.64 79.13 69.58 76.96C67.52 74.78 65.23 73.00 64.50 73.00C63.78 73.00 59.82 71.43 55.70 69.50C51.59 67.58 47.78 66.00 47.23 66.00C46.69 66.00 49.99 69.82 54.58 74.50C59.18 79.17 63.10 83.00 63.29 83.00C63.49 83.00 66.55 85.97 70.08 89.60C76.36 96.06 78.57 98.33 99.98 120.38C105.74 126.32 111.37 131.66 112.48 132.25C113.59 132.85 116.53 135.62 119.00 138.41C125.41 145.65 149.17 169.00 150.12 169.00C150.56 169.00 152.45 168.21 154.32 167.25ZM283.25 156.07C277.22 149.98 271.78 145.00 271.15 145.00C270.52 145.00 270.00 144.63 270.00 144.19C270.00 143.74 266.74 139.91 262.75 135.68C255.23 127.70 253.73 127.01 248.33 129.07L245.53 130.13L252.20 136.10C255.87 139.38 259.79 143.54 260.90 145.33C264.51 151.18 275.86 159.92 283.91 163.04C287.98 164.62 291.77 166.37 292.34 166.94C292.90 167.50 293.55 167.78 293.78 167.55C294.01 167.33 289.27 162.16 283.25 156.07ZM163.85 162.90C165.58 162.30 167.00 161.47 167.00 161.06C167.00 160.66 164.90 158.34 162.34 155.91C159.78 153.49 156.41 150.15 154.86 148.50C153.31 146.85 149.18 142.46 145.69 138.75C142.19 135.04 139.58 131.75 139.89 131.45C140.19 131.14 139.74 131.16 138.89 131.49C137.81 131.90 133.43 127.95 124.42 118.44C117.31 110.94 110.90 104.28 110.16 103.65C109.42 103.02 107.97 101.60 106.93 100.50C105.90 99.40 102.22 95.50 98.77 91.82C94.24 87.00 90.35 84.04 84.74 81.18C80.48 79.00 76.79 77.52 76.56 77.90C76.33 78.28 78.02 80.45 80.32 82.72C82.62 85.00 86.30 88.96 88.50 91.53C95.14 99.28 104.35 109.16 107.00 111.40C108.37 112.55 112.49 116.42 116.16 120.00C129.41 132.94 128.99 132.61 130.14 130.98C131.03 129.72 131.11 129.75 130.67 131.15C130.13 132.84 138.00 142.00 139.98 142.00C140.54 142.00 141.00 142.51 141.00 143.13C141.00 143.91 158.92 162.94 160.60 163.94C160.66 163.97 162.12 163.51 163.85 162.90ZM175.25 158.27C176.21 157.99 177.00 157.26 177.00 156.63C177.00 155.43 171.49 149.58 158.64 137.12C142.91 121.87 126.40 105.39 122.36 100.89C119.55 97.76 116.34 95.53 112.36 93.94C109.14 92.65 105.93 91.17 105.23 90.65C104.53 90.14 103.70 89.97 103.40 90.27C102.68 90.98 105.94 96.00 107.12 96.00C107.60 96.00 108.00 96.35 108.00 96.78C108.00 97.79 139.81 130.00 140.81 130.00C141.73 130.00 145.35 133.55 159.50 148.35C166.75 155.93 171.01 159.67 172.00 159.31C172.82 159.02 174.29 158.55 175.25 158.27ZM184.85 153.25C186.91 151.51 186.90 151.47 181.21 145.10C178.07 141.58 173.52 136.86 171.10 134.60C168.68 132.35 162.15 125.99 156.60 120.47C146.26 110.20 140.32 105.34 139.32 106.35C139.01 106.66 136.56 105.80 133.88 104.44C131.20 103.08 129.00 102.35 129.00 102.82C129.00 104.10 155.56 130.29 157.68 131.11C158.68 131.49 161.75 134.42 164.50 137.62C173.75 148.36 180.25 155.00 181.52 155.00C182.21 155.00 183.71 154.21 184.85 153.25ZM254.73 143.54L243.20 132.08L238.11 134.54C235.30 135.89 232.58 137.00 232.06 137.00C231.54 137.00 230.85 137.43 230.53 137.96C230.20 138.49 232.08 139.89 234.72 141.09C237.35 142.28 239.72 143.60 240.00 144.03C240.28 144.46 244.55 146.45 249.50 148.47C254.45 150.48 259.85 152.76 261.50 153.54C263.15 154.32 264.90 154.96 265.38 154.98C265.87 154.99 261.08 149.84 254.73 143.54ZM194.48 149.44C198.17 147.90 198.19 147.86 196.40 145.69C190.29 138.29 170.18 119.83 166.14 117.93C158.16 114.16 153.00 112.05 153.00 112.56C153.00 112.83 157.35 117.21 162.67 122.28C175.96 134.95 181.84 140.94 186.32 146.37C188.42 148.92 190.28 151.00 190.45 151.00C190.62 151.00 192.43 150.30 194.48 149.44ZM206.89 143.14L209.28 140.60L207.07 139.05C205.85 138.20 203.43 136.36 201.68 134.97C198.45 132.41 197.13 131.70 188.80 128.05C179.48 123.97 179.76 125.45 190.08 134.89C194.52 138.95 198.54 143.30 199.02 144.56C200.11 147.43 203.41 146.83 206.89 143.14ZM213.00 139.00C213.00 138.45 212.52 138.00 211.94 138.00C211.36 138.00 211.16 138.45 211.50 139.00C211.84 139.55 212.32 140.00 212.56 140.00C212.80 140.00 213.00 139.55 213.00 139.00ZM219.20 127.29C217.80 127.02 216.25 125.51 215.27 123.44C213.87 120.51 213.80 118.99 214.76 112.77C216.16 103.73 217.91 102.00 225.64 102.00C230.53 102.00 231.14 102.25 232.02 104.57C233.25 107.78 233.27 111.51 232.09 113.76C231.59 114.72 230.42 117.64 229.51 120.25C228.59 122.87 226.87 125.68 225.69 126.50C223.52 128.03 223.24 128.06 219.20 127.29ZM224.10 122.38C225.78 120.35 227.97 114.18 227.98 111.37C228.00 108.88 225.57 106.53 223.99 107.51C222.78 108.25 218.00 118.56 218.00 120.42C218.00 121.94 220.06 124.00 221.58 124.00C222.23 124.00 223.36 123.27 224.10 122.38ZM25.17 43.69C22.32 40.65 22.24 32.97 24.99 26.75C26.93 22.38 29.21 21.00 34.51 21.00C36.60 21.00 39.23 25.94 38.57 28.59C37.91 31.21 35.00 31.95 35.00 29.50C35.00 28.67 34.44 28.11 33.75 28.25C33.05 28.39 32.63 27.73 32.79 26.75C33.27 23.92 31.35 24.74 29.31 28.25C28.16 30.21 27.33 33.78 27.19 37.25C27.00 42.08 27.24 43.00 28.67 43.00C29.61 43.00 31.38 42.05 32.61 40.90C34.97 38.68 37.00 39.05 37.00 41.70C37.00 46.08 28.73 47.47 25.17 43.69ZM382.67 41.33C381.26 39.93 382.09 36.98 384.30 35.54C385.57 34.71 387.44 32.11 388.46 29.77C389.49 27.42 391.34 24.54 392.59 23.36C393.84 22.18 395.36 19.38 395.97 17.12C396.80 14.01 397.69 12.87 399.61 12.38C401.00 12.03 402.50 12.14 402.93 12.62C403.36 13.11 404.19 19.12 404.77 26.00C405.70 36.93 405.63 38.72 404.26 40.25C401.78 43.02 400.94 42.33 401.23 37.75C401.50 33.52 401.48 33.50 397.83 33.19C394.12 32.89 390.00 35.19 390.00 37.57C390.00 40.29 384.46 43.13 382.67 41.33ZM401.26 25.60C401.13 23.45 400.82 21.48 400.56 21.23C399.94 20.61 397.60 23.00 396.11 25.79C394.54 28.72 395.54 30.19 398.84 29.81C401.26 29.53 401.48 29.15 401.26 25.60Z"/>
</svg>
